<?xml version="1.0" standalone="no"?>
<!DOCTYPE svg PUBLIC "-//W3C//DTD SVG 20010904//EN"
 "http://www.w3.org/TR/2001/REC-SVG-20010904/DTD/svg10.dtd">
<svg version="1.0" xmlns="http://www.w3.org/2000/svg"
 width="523.000000pt" height="523.000000pt" viewBox="0 0 523.000000 523.000000"
 preserveAspectRatio="xMidYMid meet">
<metadata>
Created by potrace 1.11, written by Peter Selinger 2001-2013
</metadata>
<g transform="translate(0.000000,523.000000) scale(0.100000,-0.100000)"
fill="#000000" stroke="none">
<path d="M2560 4569 c-25 -7 -73 -49 -165 -142 -287 -291 -487 -618 -587 -962
-78 -269 -81 -549 -8 -826 84 -321 308 -693 593 -988 134 -138 183 -164 269
-140 81 21 333 295 493 535 226 337 352 744 330 1064 -28 417 -220 838 -560
1225 -90 103 -193 203 -226 221 -38 19 -98 25 -139 13z"/>
<path d="M565 3760 c-23 -11 -52 -38 -69 -62 l-28 -43 5 -205 c13 -535 174
-1000 460 -1333 69 -80 211 -204 306 -266 187 -123 518 -251 759 -295 30 -5
32 -4 22 14 -5 10 -15 22 -20 25 -20 12 -179 232 -245 340 -95 153 -188 350
-239 507 -127 385 -135 733 -27 1107 17 58 29 107 26 109 -2 2 -41 15 -87 28
-176 52 -501 94 -733 94 -70 0 -99 -4 -130 -20z"/>
<path d="M4280 3769 c-132 -13 -316 -44 -448 -78 -62 -15 -114 -30 -116 -32
-3 -2 9 -49 25 -103 52 -177 73 -320 73 -516 0 -197 -10 -276 -60 -468 -86
-334 -247 -635 -526 -984 -12 -15 -20 -30 -17 -32 8 -9 181 33 310 74 154 50
378 158 502 242 119 81 286 248 369 368 227 328 346 717 373 1220 10 186 -14
259 -100 300 -35 17 -60 20 -166 19 -68 -1 -167 -6 -219 -10z"/>
<path d="M406 2060 c-234 -143 -389 -275 -402 -344 -17 -91 13 -142 143 -244
420 -330 893 -501 1319 -478 143 7 247 25 393 67 101 29 297 103 315 120 10 9
-3 13 -144 34 -621 97 -1119 377 -1439 809 -40 53 -75 96 -79 96 -4 0 -52 -27
-106 -60z"/>
<path d="M4639 2023 c-93 -128 -266 -299 -404 -401 -259 -193 -677 -357 -1051
-411 -69 -10 -127 -21 -130 -23 -8 -8 127 -66 251 -107 213 -70 303 -85 525
-85 172 1 210 4 320 27 326 68 678 239 947 459 93 76 124 117 130 172 8 67
-11 108 -78 170 -93 86 -398 296 -430 296 -4 0 -40 -44 -80 -97z"/>
<path d="M2534 997 c-38 -23 -132 -71 -207 -107 -75 -36 -136 -68 -137 -71 0
-9 189 -96 283 -130 108 -40 185 -40 292 2 100 38 275 120 275 128 0 3 -58 33
-128 66 -69 33 -162 81 -206 108 -43 26 -84 47 -90 47 -6 0 -43 -19 -82 -43z"/>
</g>
</svg>
